<?xml version="1.0" encoding="UTF-8" standalone="no"?>
<!-- Created with Inkscape (http://www.inkscape.org/) -->
<svg
   xmlns:svg="http://www.w3.org/2000/svg"
   xmlns="http://www.w3.org/2000/svg"
   id="svg2"
   viewBox="0 0 1 1"
   height="270.00000"
   width="800.00000"
   y="0.0000000"
   x="0.0000000"
   version="1.0">
  <g
     id="g1353">
    <path
       id="path18"
       style="font-style:normal;font-variant:normal;font-weight:normal;font-stretch:normal;fill:#80c31c;fill-opacity:1.0000000;fill-rule:nonzero;stroke:#7fff00;stroke-width:0.0000000;stroke-linecap:butt;stroke-linejoin:miter;stroke-miterlimit:10.433000;stroke-dashoffset:0.0000000;stroke-opacity:1.0000000;letter-spacing:normal;text-anchor:start"
       d="M 0.49294041,0.080092599 L 0.31504688,0.11388890 C 0.32617262,0.16439801 0.32824133,0.20468433 0.32824133,0.27430558 L 0.32824133,0.79409729 C 0.32824133,0.84465436 0.32616029,0.88053703 0.31608855,0.90520841 L 0.46655152,0.90520841 C 0.47158745,0.89621911 0.47568267,0.88059351 0.47673671,0.86932877 C 0.49781712,0.89742792 0.53336897,0.91990748 0.57974598,0.91990748 L 0.58761635,0.91967600 L 0.59537098,0.91932878 L 0.60289413,0.91863433 L 0.61041728,0.91759267 L 0.61770894,0.91620378 L 0.62500061,0.91446767 L 0.62870431,0.91354174 L 0.63217654,0.91250007 L 0.63576450,0.91122692 L 0.63935246,0.91006952 L 0.64294043,0.90868063 L 0.64641265,0.90717600 L 0.65000061,0.90555563 L 0.65347283,0.90393526 L 0.65694506,0.90219915 L 0.66053302,0.90023155 L 0.66400524,0.89826396 L 0.66747747,0.89618063 L 0.67106543,0.89398155 L 0.67453765,0.89155100 L 0.67812561,0.88912044 L 0.68171358,0.88657414 L 0.68518580,0.88379637 L 0.68877376,0.88101859 L 0.69236173,0.87800933 L 0.69583395,0.87500007 C 0.76457958,0.81549344 0.79699140,0.71779935 0.79699136,0.60104171 C 0.79699136,0.40687500 0.71311128,0.31145837 0.59189876,0.31145836 C 0.54645879,0.31145836 0.51510960,0.32940148 0.49988486,0.34398151 C 0.50292979,0.33499924 0.50393575,0.30243837 0.50393579,0.27997687 L 0.50393579,0.19120372 C 0.50393579,0.15193710 0.49785919,0.10814020 0.49294041,0.080092599 z M 0.54930616,0.46851856 C 0.58877342,0.46851856 0.60914413,0.49660200 0.60914413,0.61111116 C 0.60914413,0.71887484 0.59184172,0.75810195 0.54733857,0.75810191 C 0.52520412,0.75810191 0.51307060,0.74805580 0.50393579,0.73912043 L 0.50393579,0.49664356 L 0.50463023,0.49571763 L 0.50532467,0.49467597 L 0.50613486,0.49363430 L 0.50682930,0.49247689 L 0.50763949,0.49143522 L 0.50844967,0.49027782 L 0.50937560,0.48912041 L 0.51041727,0.48796300 L 0.51134319,0.48680559 L 0.51238486,0.48564819 L 0.51342653,0.48449078 L 0.51446819,0.48333337 L 0.51562560,0.48217596 L 0.51689875,0.48101856 L 0.51817190,0.47986115 L 0.51944505,0.47881948 L 0.52094968,0.47777782 L 0.52233856,0.47673615 L 0.52384319,0.47569448 L 0.52534782,0.47476856 L 0.52696819,0.47384263 L 0.52858857,0.47303245 L 0.53044042,0.47222226 L 0.53229227,0.47152782 L 0.53414412,0.47083337 L 0.53599597,0.47025467 L 0.53807931,0.46979170 L 0.54027838,0.46932874 L 0.54236171,0.46898152 L 0.54467653,0.46875004 L 0.54699134,0.46863430 L 0.54930616,0.46851856 z " />
    <path
       id="path24"
       style="font-style:normal;font-variant:normal;font-weight:normal;font-stretch:normal;fill:#0066cb;fill-opacity:1.0000000;fill-rule:nonzero;stroke:#00c7f3;stroke-width:0.0000000;stroke-linecap:butt;stroke-linejoin:miter;stroke-miterlimit:10.433000;stroke-dashoffset:0.0000000;stroke-opacity:1.0000000;letter-spacing:normal;text-anchor:start"
       d="M 1.0012738,0.30914354 C 0.85382785,0.30914354 0.76388947,0.42590655 0.76388951,0.61678246 C 0.76388951,0.80421306 0.85580189,0.91759267 1.0224543,0.91759267 C 1.1002178,0.91759267 1.1650405,0.89404307 1.2347229,0.83449081 L 1.1670145,0.72233802 L 1.1627321,0.72592598 L 1.1584497,0.72939821 L 1.1541673,0.73275469 L 1.1498849,0.73611117 L 1.1456025,0.73923617 L 1.1413201,0.74224543 L 1.1370377,0.74513895 L 1.1327553,0.74803247 L 1.1284729,0.75069450 L 1.1241905,0.75324080 L 1.1197923,0.75567136 L 1.1155099,0.75798617 L 1.1111118,0.76018525 L 1.1069451,0.76238432 L 1.1026627,0.76435191 L 1.0982645,0.76620376 L 1.0939821,0.76793988 L 1.0896997,0.76956025 L 1.0854173,0.77118062 L 1.0810192,0.77256951 L 1.0767368,0.77384265 L 1.0723386,0.77500006 L 1.0681719,0.77604173 L 1.0638895,0.77708340 L 1.0594914,0.77789358 L 1.0553247,0.77858803 L 1.0509266,0.77928247 L 1.0467599,0.77974543 L 1.0423618,0.78009266 L 1.0380793,0.78043988 L 1.0339127,0.78055562 L 1.0296303,0.78067136 C 0.95678571,0.78067136 0.94583389,0.71104480 0.94583397,0.67511579 L 1.2366905,0.67511579 C 1.2366905,0.66278424 1.2366906,0.64816579 1.2366905,0.62685190 C 1.2377446,0.42814140 1.1689802,0.30914355 1.0012738,0.30914354 z M 1.0074080,0.44502318 C 1.0498032,0.44502318 1.0650703,0.48429900 1.0630793,0.54826393 L 0.94583397,0.54826393 L 0.94583397,0.54120375 L 0.94606545,0.53437504 L 0.94641267,0.52777782 L 0.94687564,0.52164356 L 0.94745434,0.51562504 L 0.94826452,0.50995374 L 0.94907471,0.50462967 L 0.95011638,0.49942134 L 0.95127378,0.49456022 L 0.95243119,0.49004634 L 0.95382008,0.48564819 L 0.95544045,0.48159726 L 0.95706082,0.47766208 L 0.95879693,0.47407411 L 0.96053304,0.47071763 L 0.96250064,0.46759263 L 0.96469971,0.46469911 L 0.96678304,0.46203707 L 0.96909786,0.45949078 L 0.97141267,0.45729170 L 0.97384323,0.45520837 L 0.97662101,0.45335652 L 0.97916730,0.45173615 L 0.98194508,0.45023152 L 0.98495434,0.44895837 L 0.98784786,0.44791670 L 0.99085712,0.44699078 L 0.99409786,0.44629633 L 0.99722286,0.44571763 L 1.0005793,0.44537041 L 1.0039358,0.44513892 L 1.0074080,0.44502318 z " />
    <path
       id="path14"
       style="font-style:normal;font-variant:normal;font-weight:normal;font-stretch:normal;fill:#80c31c;fill-opacity:1.0000000;fill-rule:nonzero;stroke:#7fff00;stroke-width:0.0000000;stroke-linecap:butt;stroke-linejoin:miter;stroke-miterlimit:10.433000;stroke-dashoffset:0.0000000;stroke-opacity:1.0000000;letter-spacing:normal;text-anchor:start"
       d="M 0.084028344,0.31145836 C -0.063464334,0.31145836 -0.15335593,0.42811733 -0.15335593,0.61898153 C -0.15335593,0.80646362 -0.061374667,0.91990748 0.10532464,0.91990748 C 0.18309969,0.91990748 0.24771291,0.89625481 0.31747744,0.83680562 L 0.24976910,0.72453709 L 0.24548669,0.72812506 L 0.24120428,0.73159728 L 0.23692188,0.73495376 L 0.23263947,0.73831024 L 0.22835706,0.74143524 L 0.22407465,0.74444450 L 0.21979224,0.74733802 L 0.21550984,0.75023154 L 0.21122743,0.75289358 L 0.20694502,0.75543988 L 0.20254687,0.75787043 L 0.19826446,0.76018525 L 0.19398206,0.76250006 L 0.18969965,0.76458339 L 0.18541724,0.76655099 L 0.18101909,0.76840284 L 0.17673669,0.77013895 L 0.17245428,0.77187506 L 0.16817187,0.77337969 L 0.16377372,0.77476858 L 0.15949131,0.77604173 L 0.15520891,0.77731488 L 0.15092650,0.77835654 L 0.14664409,0.77928247 L 0.14236168,0.78009266 L 0.13807927,0.78090284 L 0.13368113,0.78148154 L 0.12939872,0.78194451 L 0.12511631,0.78240747 L 0.12083390,0.78263895 L 0.11655150,0.78287043 L 0.11238483,0.78287043 C 0.039669119,0.78287043 0.028472747,0.71331283 0.028472784,0.67743061 L 0.31944503,0.67743061 C 0.31944503,0.66504050 0.31944507,0.65036479 0.31944503,0.62905098 C 0.32049907,0.43034040 0.25173484,0.31145837 0.084028344,0.31145836 z M 0.090162604,0.44722226 C 0.13256942,0.44722226 0.14774424,0.48647463 0.14571816,0.55046301 L 0.028472784,0.55046301 L 0.028588525,0.54340282 L 0.028820007,0.53657412 L 0.029167229,0.53009264 L 0.029630192,0.52384263 L 0.030208896,0.51782412 L 0.031019081,0.51215282 L 0.031829266,0.50682874 L 0.032870933,0.50173615 L 0.034028340,0.49687504 L 0.035301489,0.49224541 L 0.036690378,0.48784726 L 0.038195007,0.48379633 L 0.039699637,0.47997689 L 0.041435748,0.47638893 L 0.043287600,0.47291670 L 0.045255193,0.46979170 L 0.047338527,0.46689819 L 0.049537601,0.46423615 L 0.051852416,0.46180559 L 0.054167231,0.45949078 L 0.056713527,0.45740744 L 0.059259824,0.45555559 L 0.061921861,0.45393522 L 0.064699639,0.45243059 L 0.067593158,0.45115744 L 0.070602417,0.45011578 L 0.073611677,0.44918985 L 0.076736677,0.44849541 L 0.079977418,0.44791670 L 0.083333900,0.44756948 L 0.086690382,0.44733800 L 0.090162604,0.44722226 z " />
    <path
       id="path20"
       style="font-style:normal;font-variant:normal;font-weight:normal;font-stretch:normal;fill:#0066cb;fill-opacity:1.0000000;fill-rule:nonzero;stroke:#00c7f3;stroke-width:0.0000000;stroke-linecap:butt;stroke-linejoin:miter;stroke-miterlimit:10.433000;stroke-dashoffset:0.0000000;stroke-opacity:1.0000000;letter-spacing:normal;text-anchor:start"
       d="M 1.5313594,0.90523973 L 1.4941173,0.81543703 C 1.4859194,0.79747607 1.4728027,0.76153527 1.4708118,0.75031625 L 1.4688208,0.75031625 C 1.4647219,0.77501457 1.4535961,0.80644890 1.4334526,0.84463697 L 1.4021832,0.90523973 L 1.1869287,0.90523973 L 1.3666979,0.60326250 L 1.2172611,0.34619660 L 1.4072192,0.30575890 L 1.4465693,0.38212567 C 1.4596859,0.40683566 1.4708118,0.44048103 1.4779557,0.47082400 L 1.4788926,0.47082400 C 1.4798295,0.45506113 1.4889643,0.40903726 1.5051260,0.37539189 L 1.5284316,0.32598358 L 1.7345513,0.32598358 L 1.5779706,0.59765299 L 1.7546948,0.90523973 L 1.5313594,0.90523973 z " />
    <polygon
       id="polygon26"
       style="font-style:normal;font-variant:normal;font-weight:normal;font-stretch:normal;fill:#0066cb;fill-opacity:1.0000000;fill-rule:nonzero;stroke:#00c7f3;stroke-width:0.0000000;stroke-linecap:butt;stroke-linejoin:miter;stroke-miterlimit:10.433000;stroke-dashoffset:0.0000000;stroke-opacity:1.0000000;letter-spacing:normal;text-anchor:start"
       transform="matrix(1.171135e-2,0.000000,0.000000,-1.171090e-2,-0.888908,0.919855)"
       points="229.74000,50.035000 227.89000,50.035000 227.89000,45.003000 226.85000,45.003000 226.85000,50.035000 224.99000,50.035000 224.99000,50.873000 229.74000,50.873000 229.74000,50.035000 " />
    <polygon
       id="polygon28"
       style="font-style:normal;font-variant:normal;font-weight:normal;font-stretch:normal;fill:#0066cb;fill-opacity:1.0000000;fill-rule:nonzero;stroke:#00c7f3;stroke-width:0.0000000;stroke-linecap:butt;stroke-linejoin:miter;stroke-miterlimit:10.433000;stroke-dashoffset:0.0000000;stroke-opacity:1.0000000;letter-spacing:normal;text-anchor:start"
       transform="matrix(1.171135e-2,0.000000,0.000000,-1.171090e-2,-0.888908,0.919855)"
       points="237.19000,45.003000 236.26000,45.003000 236.26000,50.035000 234.23000,45.003000 233.68000,45.003000 231.70000,50.035000 231.70000,45.003000 230.77000,45.003000 230.77000,50.873000 232.28000,50.873000 233.96000,46.736000 235.70000,50.873000 237.19000,50.873000 237.19000,45.003000 " />
    <path
       id="path30"
       style="font-style:normal;font-variant:normal;font-weight:normal;font-stretch:normal;fill:#80c31c;fill-opacity:1.0000000;fill-rule:nonzero;stroke:#7fff00;stroke-width:0.0000000;stroke-linecap:butt;stroke-linejoin:miter;stroke-miterlimit:10.433000;stroke-dashoffset:0.0000000;stroke-opacity:1.0000000;letter-spacing:normal;text-anchor:start"
       d="M -0.25681098,0.90744606 L -0.43004528,0.90744606 L -0.46270821,0.74088899 C -0.47632848,0.67165418 -0.49081544,0.59659901 -0.49354418,0.56036551 L -0.49442254,0.56036551 C -0.49628465,0.58915087 -0.50988151,0.66588069 -0.52524677,0.74088899 L -0.55882321,0.90744606 L -0.73568796,0.90744606 L -0.88890754,0.34892523 L -0.71750026,0.31381602 L -0.68213201,0.48778136 C -0.65223296,0.61721021 -0.64676375,0.67327027 -0.64588538,0.69472460 L -0.64500702,0.69472460 C -0.64135310,0.64857196 -0.63047324,0.57683099 -0.61324587,0.49192702 L -0.58061802,0.33279933 L -0.40013450,0.33279933 L -0.35929704,0.52490492 C -0.35023239,0.56859829 -0.33754905,0.62381516 -0.33393021,0.69389315 L -0.33300502,0.69389315 C -0.32940966,0.64281020 -0.31037874,0.53147472 -0.29764851,0.47540292 L -0.26594584,0.33279933 L -0.092723344,0.33279933 L -0.25681098,0.90744606 z " />
    <path
       id="path32"
       style="font-style:normal;font-variant:normal;font-weight:normal;font-stretch:normal;fill:#80c31c;fill-opacity:1.0000000;fill-rule:nonzero;stroke:#7fff00;stroke-width:0.0000000;stroke-linecap:butt;stroke-linejoin:miter;stroke-miterlimit:10.433000;stroke-dashoffset:0.0000000;stroke-opacity:1.0000000;letter-spacing:normal;text-anchor:start"
       d="M 0.76918497,0.69107082 L 0.77269838,0.69047358 L 0.77621178,0.68972408 L 0.77960808,0.68882234 L 0.78300438,0.68776835 L 0.78628350,0.68657386 L 0.78956269,0.68523878 L 0.79272477,0.68376320 L 0.79576968,0.68214711 L 0.79869755,0.68041391 L 0.80162542,0.67855188 L 0.80443612,0.67656101 L 0.80724682,0.67445303 L 0.80982330,0.67223969 L 0.81239985,0.66990925 L 0.81474212,0.66746164 L 0.81708439,0.66492040 L 0.81930955,0.66228546 L 0.82141754,0.65954510 L 0.82340849,0.65671103 L 0.82528233,0.65379501 L 0.82692189,0.65078536 L 0.82856145,0.64770536 L 0.82996687,0.64454346 L 0.83137222,0.64129954 L 0.83254335,0.63799707 L 0.83359738,0.63462431 L 0.83441713,0.63119300 L 0.83523694,0.62769147 L 0.83570544,0.62414306 L 0.83617386,0.62054783 L 0.83640808,0.61690572 L 0.83652518,0.61320506 C 0.83652518,0.57273221 0.80595858,0.53934445 0.76660849,0.53499973 L 0.76672560,0.53706082 C 0.76133835,0.55921783 0.75852765,0.58308463 0.75852765,0.60840360 C 0.75852765,0.63764570 0.76215817,0.66441685 0.76895076,0.68856466 L 0.76918497,0.69107082 z " />
    <path
       id="path34"
       style="font-style:normal;font-variant:normal;font-weight:normal;font-stretch:normal;fill:#0066cb;fill-opacity:1.0000000;fill-rule:nonzero;stroke:#00c7f3;stroke-width:0.0000000;stroke-linecap:butt;stroke-linejoin:miter;stroke-miterlimit:10.433000;stroke-dashoffset:0.0000000;stroke-opacity:1.0000000;letter-spacing:normal;text-anchor:start"
       d="M 0.76918497,0.69107082 L 0.76777963,0.69125821 L 0.76637421,0.69141046 L 0.76496886,0.69155097 L 0.76356351,0.69166807 L 0.76215817,0.69175003 L 0.76075282,0.69182032 L 0.75923029,0.69185546 L 0.75782495,0.69186720 C 0.71437586,0.69186720 0.67912471,0.65667589 0.67912471,0.61320506 C 0.67912471,0.56973423 0.71437586,0.53450784 0.75782495,0.53450784 C 0.76086992,0.53450784 0.76368062,0.53468350 0.76660849,0.53499973 L 0.76672560,0.53706082 C 0.76133835,0.55921783 0.75852765,0.58308463 0.75852765,0.60840360 C 0.75852765,0.63764570 0.76215817,0.66441685 0.76895076,0.68856466 L 0.76918497,0.69107082 z " />
  </g>
</svg>
